<mxfile host="65bd71144e">
    <diagram id="RF4AThWQVD1Is7wCSENo" name="Page-1">
        <mxGraphModel dx="822" dy="471" grid="1" gridSize="10" guides="1" tooltips="1" connect="1" arrows="1" fold="1" page="1" pageScale="1" pageWidth="850" pageHeight="1100" math="0" shadow="0">
            <root>
                <mxCell id="0"/>
                <mxCell id="1" parent="0"/>
                <mxCell id="2" value="" style="rhombus;whiteSpace=wrap;html=1;" vertex="1" parent="1">
                    <mxGeometry x="170" y="120" width="80" height="80" as="geometry"/>
                </mxCell>
                <mxCell id="3" value="" style="shape=rhombus;html=1;verticalLabelPosition=bottom;verticalAlignment=top;" vertex="1" parent="1">
                    <mxGeometry x="190" y="350" width="40" height="40" as="geometry"/>
                </mxCell>
                <mxCell id="4" value="" style="edgeStyle=elbowEdgeStyle;html=1;elbow=horizontal;align=right;verticalAlign=bottom;endArrow=none;rounded=0;labelBackgroundColor=none;startArrow=open;startSize=12;entryX=0.5;entryY=1;entryDx=0;entryDy=0;" edge="1" source="3" parent="1" target="2">
                    <mxGeometry relative="1" as="geometry">
                        <mxPoint x="210" y="310" as="targetPoint"/>
                    </mxGeometry>
                </mxCell>
                <mxCell id="5" value="[guard]" style="edgeStyle=elbowEdgeStyle;html=1;elbow=vertical;verticalAlign=bottom;endArrow=open;rounded=0;labelBackgroundColor=none;endSize=12;" edge="1" source="3" parent="1">
                    <mxGeometry relative="1" as="geometry">
                        <mxPoint x="310" y="370" as="targetPoint"/>
                    </mxGeometry>
                </mxCell>
                <mxCell id="6" value="[else]" style="edgeStyle=elbowEdgeStyle;html=1;elbow=vertical;verticalAlign=bottom;endArrow=open;rounded=0;labelBackgroundColor=none;endSize=12;" edge="1" source="3" parent="1">
                    <mxGeometry relative="1" as="geometry">
                        <mxPoint x="110" y="370" as="targetPoint"/>
                    </mxGeometry>
                </mxCell>
            </root>
        </mxGraphModel>
    </diagram>
    <diagram id="Q6s8_6KmxtQKFn5Co1ND" name="res-strats">
        <mxGraphModel dx="822" dy="471" grid="1" gridSize="10" guides="1" tooltips="1" connect="1" arrows="1" fold="1" page="1" pageScale="1" pageWidth="850" pageHeight="1100" math="0" shadow="0">
            <root>
                <mxCell id="Tyi0lnpF4cOZSozCq-IB-0"/>
                <mxCell id="Tyi0lnpF4cOZSozCq-IB-1" parent="Tyi0lnpF4cOZSozCq-IB-0"/>
                <mxCell id="Tyi0lnpF4cOZSozCq-IB-2" value="&lt;font style=&quot;font-size: 24px&quot;&gt;Reactive Strategies&lt;/font&gt;" style="text;html=1;align=center;verticalAlign=middle;resizable=0;points=[];autosize=1;strokeColor=none;" vertex="1" parent="Tyi0lnpF4cOZSozCq-IB-1">
                    <mxGeometry x="230" y="42" width="220" height="20" as="geometry"/>
                </mxCell>
                <mxCell id="Tyi0lnpF4cOZSozCq-IB-3" value="&lt;b&gt;Retry, Wait and Retry, Exponetial Backoff&lt;/b&gt;" style="rounded=0;whiteSpace=wrap;html=1;fillColor=#333300;" vertex="1" parent="Tyi0lnpF4cOZSozCq-IB-1">
                    <mxGeometry x="80" y="92" width="160" height="80" as="geometry"/>
                </mxCell>
                <mxCell id="Tyi0lnpF4cOZSozCq-IB-6" value="&lt;b&gt;&lt;font style=&quot;font-size: 14px&quot;&gt;Circuit Breaker&lt;/font&gt;&lt;/b&gt;" style="rounded=0;whiteSpace=wrap;html=1;fillColor=#336600;" vertex="1" parent="Tyi0lnpF4cOZSozCq-IB-1">
                    <mxGeometry x="260" y="92" width="160" height="80" as="geometry"/>
                </mxCell>
                <mxCell id="Tyi0lnpF4cOZSozCq-IB-7" value="&lt;font style=&quot;font-size: 14px&quot;&gt;&lt;b&gt;Fallback&lt;/b&gt;&lt;/font&gt;" style="rounded=0;whiteSpace=wrap;html=1;fillColor=#663300;" vertex="1" parent="Tyi0lnpF4cOZSozCq-IB-1">
                    <mxGeometry x="440" y="92" width="160" height="80" as="geometry"/>
                </mxCell>
                <mxCell id="Tyi0lnpF4cOZSozCq-IB-8" value="&lt;b&gt;Bulkhed isolation&lt;/b&gt;" style="rounded=0;whiteSpace=wrap;html=1;fillColor=#006666;" vertex="1" parent="Tyi0lnpF4cOZSozCq-IB-1">
                    <mxGeometry x="80" y="230" width="160" height="80" as="geometry"/>
                </mxCell>
                <mxCell id="Tyi0lnpF4cOZSozCq-IB-9" value="&lt;b&gt;&lt;font style=&quot;font-size: 14px&quot;&gt;Timeout&lt;/font&gt;&lt;/b&gt;" style="rounded=0;whiteSpace=wrap;html=1;fillColor=#006633;" vertex="1" parent="Tyi0lnpF4cOZSozCq-IB-1">
                    <mxGeometry x="260" y="230" width="160" height="80" as="geometry"/>
                </mxCell>
                <mxCell id="Tyi0lnpF4cOZSozCq-IB-10" value="&lt;font style=&quot;font-size: 14px&quot;&gt;&lt;b&gt;Caching&lt;/b&gt;&lt;/font&gt;" style="rounded=0;whiteSpace=wrap;html=1;fillColor=#660000;" vertex="1" parent="Tyi0lnpF4cOZSozCq-IB-1">
                    <mxGeometry x="440" y="230" width="160" height="80" as="geometry"/>
                </mxCell>
                <mxCell id="Tyi0lnpF4cOZSozCq-IB-11" value="&lt;font style=&quot;font-size: 24px&quot;&gt;Proactive Strategies&lt;/font&gt;" style="text;html=1;align=center;verticalAlign=middle;resizable=0;points=[];autosize=1;strokeColor=none;" vertex="1" parent="Tyi0lnpF4cOZSozCq-IB-1">
                    <mxGeometry x="225" y="190" width="230" height="20" as="geometry"/>
                </mxCell>
            </root>
        </mxGraphModel>
    </diagram>
</mxfile>
